<svg width="11" height="12" viewBox="0 0 11 12" fill="none" xmlns="http://www.w3.org/2000/svg">
<g id="Icon / Heart">
<g id="Group">
<path id="Vector" d="M9.28 4.43653L9.28 4.43481C9.28112 3.89295 9.07292 3.37194 8.69944 2.98105C8.32764 2.59396 7.8242 2.37829 7.29999 2.37815C7.03845 2.37891 6.77972 2.43256 6.53926 2.53595C6.29864 2.63941 6.08125 2.79055 5.90012 2.98037L5.89866 2.98191L5.89865 2.98191L5.78788 3.09677C5.71258 3.17486 5.6088 3.21901 5.50033 3.21911C5.39185 3.21921 5.28799 3.17526 5.21255 3.09732L5.10136 2.98245L5.09874 2.97975L5.09876 2.97974C4.91821 2.78968 4.70113 2.63845 4.46071 2.53513C4.22029 2.43182 3.9615 2.37857 3.70002 2.37857C3.43854 2.37857 3.17975 2.43182 2.93933 2.53513C2.69891 2.63845 2.48183 2.78968 2.30129 2.97974L2.29952 2.98158C1.52687 3.7846 1.52678 5.08663 2.29957 5.89015L9.28 4.43653ZM9.28 4.43653C9.28121 4.97831 9.07317 5.49928 8.69986 5.89023C8.35451 6.24936 8.01618 6.60977 7.67954 6.96837C7.00842 7.68328 6.34403 8.39102 5.64413 9.06727C5.56032 9.14588 5.42782 9.14222 5.34891 9.06032C5.34889 9.06029 5.34886 9.06027 5.34884 9.06024L2.29958 5.89017L9.28 4.43653Z" stroke="url(#paint0_radial_453_642)" stroke-width="0.8" stroke-linejoin="round"/>
</g>
</g>
<defs>
<radialGradient id="paint0_radial_453_642" cx="0" cy="0" r="1" gradientUnits="userSpaceOnUse" gradientTransform="translate(1.32001 0.749747) rotate(51.6159) scale(11.1936 11.5154)">
<stop offset="0.046875" stop-color="#FD5F4A"/>
<stop offset="0.983052" stop-color="#F249A4"/>
</radialGradient>
</defs>
</svg>
