<svg width="9" height="9" viewBox="0 0 9 9" fill="none" xmlns="http://www.w3.org/2000/svg">
<g id="Icon / Location">
<g id="Group">
<path id="Vector" d="M7.5 3.75C7.5 5.40675 4.5 8.25 4.5 8.25C4.5 8.25 1.5 5.40675 1.5 3.75C1.5 2.95435 1.81607 2.19129 2.37868 1.62868C2.94129 1.06607 3.70435 0.75 4.5 0.75C5.29565 0.75 6.05871 1.06607 6.62132 1.62868C7.18393 2.19129 7.5 2.95435 7.5 3.75Z" fill="#252B5C"/>
<path id="Vector_2" d="M4.49999 4.04996C4.61933 4.04996 4.73379 4.00255 4.81819 3.91816C4.90258 3.83377 4.94999 3.71931 4.94999 3.59996C4.94999 3.48062 4.90258 3.36616 4.81819 3.28177C4.73379 3.19737 4.61933 3.14996 4.49999 3.14996C4.38064 3.14996 4.26618 3.19737 4.18179 3.28177C4.0974 3.36616 4.04999 3.48062 4.04999 3.59996C4.04999 3.71931 4.0974 3.83377 4.18179 3.91816C4.26618 4.00255 4.38064 4.04996 4.49999 4.04996Z" fill="white" stroke="white" stroke-width="1.25" stroke-linecap="round" stroke-linejoin="round"/>
</g>
</g>
</svg>
