<svg width="14" height="16" viewBox="0 0 14 16" fill="none" xmlns="http://www.w3.org/2000/svg">
<path id="Vector" d="M11.6667 15.5556C11.0185 15.5556 10.4676 15.3287 10.0139 14.875C9.56019 14.4213 9.33333 13.8704 9.33333 13.2222C9.33333 13.1315 9.33982 13.0374 9.35278 12.9399C9.36574 12.8424 9.38519 12.755 9.41111 12.6778L3.92778 9.48889C3.70741 9.68333 3.46111 9.83578 3.18889 9.94622C2.91667 10.0567 2.63148 10.1116 2.33333 10.1111C1.68519 10.1111 1.13426 9.88426 0.680556 9.43056C0.226852 8.97685 0 8.42593 0 7.77778C0 7.12963 0.226852 6.5787 0.680556 6.125C1.13426 5.6713 1.68519 5.44444 2.33333 5.44444C2.63148 5.44444 2.91667 5.49967 3.18889 5.61011C3.46111 5.72056 3.70741 5.87274 3.92778 6.06667L9.41111 2.87778C9.38519 2.8 9.36574 2.71263 9.35278 2.61567C9.33982 2.5187 9.33333 2.42459 9.33333 2.33333C9.33333 1.68519 9.56019 1.13426 10.0139 0.680556C10.4676 0.226852 11.0185 0 11.6667 0C12.3148 0 12.8657 0.226852 13.3194 0.680556C13.7731 1.13426 14 1.68519 14 2.33333C14 2.98148 13.7731 3.53241 13.3194 3.98611C12.8657 4.43982 12.3148 4.66667 11.6667 4.66667C11.3685 4.66667 11.0833 4.6117 10.8111 4.50178C10.5389 4.39185 10.2926 4.23941 10.0722 4.04444L4.58889 7.23333C4.61481 7.31111 4.63426 7.39874 4.64722 7.49622C4.66019 7.5937 4.66667 7.68756 4.66667 7.77778C4.66667 7.86852 4.66019 7.96263 4.64722 8.06011C4.63426 8.15759 4.61481 8.24496 4.58889 8.32222L10.0722 11.5111C10.2926 11.3167 10.5389 11.1645 10.8111 11.0546C11.0833 10.9446 11.3685 10.8894 11.6667 10.8889C12.3148 10.8889 12.8657 11.1157 13.3194 11.5694C13.7731 12.0231 14 12.5741 14 13.2222C14 13.8704 13.7731 14.4213 13.3194 14.875C12.8657 15.3287 12.3148 15.5556 11.6667 15.5556ZM11.6667 3.11111C11.887 3.11111 12.0719 3.03644 12.2212 2.88711C12.3706 2.73778 12.445 2.55319 12.4444 2.33333C12.4444 2.11296 12.3698 1.92811 12.2204 1.77878C12.0711 1.62944 11.8865 1.55504 11.6667 1.55556C11.4463 1.55556 11.2614 1.63022 11.1121 1.77956C10.9628 1.92889 10.8884 2.11348 10.8889 2.33333C10.8889 2.5537 10.9636 2.73856 11.1129 2.88789C11.2622 3.03722 11.4468 3.11163 11.6667 3.11111ZM2.33333 8.55556C2.5537 8.55556 2.73856 8.48089 2.88789 8.33156C3.03722 8.18222 3.11163 7.99763 3.11111 7.77778C3.11111 7.55741 3.03644 7.37256 2.88711 7.22322C2.73778 7.07389 2.55319 6.99948 2.33333 7C2.11296 7 1.92811 7.07467 1.77878 7.224C1.62944 7.37333 1.55504 7.55793 1.55556 7.77778C1.55556 7.99815 1.63022 8.183 1.77956 8.33233C1.92889 8.48167 2.11348 8.55607 2.33333 8.55556ZM11.6667 14C11.887 14 12.0719 13.9253 12.2212 13.776C12.3706 13.6267 12.445 13.4421 12.4444 13.2222C12.4444 13.0019 12.3698 12.817 12.2204 12.6677C12.0711 12.5183 11.8865 12.4439 11.6667 12.4444C11.4463 12.4444 11.2614 12.5191 11.1121 12.6684C10.9628 12.8178 10.8884 13.0024 10.8889 13.2222C10.8889 13.4426 10.9636 13.6274 11.1129 13.7768C11.2622 13.9261 11.4468 14.0005 11.6667 14Z" fill="white"/>
</svg>
